<?xml version="1.0" standalone="no"?>
<!DOCTYPE svg PUBLIC "-//W3C//DTD SVG 20010904//EN"
 "http://www.w3.org/TR/2001/REC-SVG-20010904/DTD/svg10.dtd">
<svg version="1.0" xmlns="http://www.w3.org/2000/svg"
 width="300.000000pt" height="300.000000pt" viewBox="0 0 300.000000 300.000000"
 preserveAspectRatio="xMidYMid meet">
<metadata>
Created by potrace 1.14, written by Peter Selinger 2001-2017
</metadata>
<g transform="translate(0.000000,300.000000) scale(0.100000,-0.100000)"
fill="#000000" stroke="none">
<path d="M350 2987 c0 -7 -32 -27 -71 -46 -96 -44 -176 -125 -221 -220 -18
-39 -38 -71 -45 -71 -10 0 -13 -230 -13 -1150 0 -988 2 -1150 14 -1150 8 0 20
-17 27 -37 17 -53 81 -144 130 -187 24 -20 44 -34 46 -32 2 2 16 -7 30 -20 14
-13 32 -24 39 -24 24 0 64 -23 64 -37 0 -11 196 -13 1150 -13 954 0 1150 2
1150 13 0 14 40 37 63 37 20 0 131 84 166 126 18 22 46 69 64 107 17 37 37 67
44 67 10 0 13 230 13 1150 0 920 -3 1150 -13 1150 -7 0 -27 31 -44 68 -49 105
-147 199 -245 236 -27 10 -48 24 -48 32 0 12 -164 14 -1150 14 -920 0 -1150
-3 -1150 -13z m2285 -167 c59 -30 140 -108 181 -176 l29 -49 0 -1090 0 -1090
-28 -55 c-41 -78 -101 -137 -177 -174 l-65 -31 -1085 0 -1085 0 -29 23 c-16
12 -35 22 -43 22 -26 0 -117 97 -147 155 l-28 56 0 1073 c0 589 4 1085 8 1101
28 116 151 236 264 255 25 4 520 7 1100 6 l1055 -1 50 -25z"/>
<path d="M1264 2641 c-70 -12 -150 -84 -164 -147 -5 -22 -10 -89 -11 -151 -1
-82 -5 -116 -15 -124 -23 -19 -18 -108 8 -136 15 -16 24 -43 29 -87 10 -78 43
-180 72 -218 12 -16 41 -48 63 -72 36 -36 42 -48 42 -88 1 -42 -1 -46 -26 -51
-243 -49 -400 -138 -449 -256 -9 -21 -18 -91 -22 -181 -6 -105 -12 -153 -24
-175 -12 -22 -17 -54 -16 -120 1 -107 4 -117 48 -150 31 -22 45 -25 118 -25
l83 0 0 -124 c0 -115 2 -127 23 -151 27 -32 78 -44 184 -45 119 0 164 29 115
73 -15 14 -40 17 -125 17 l-107 0 0 126 c0 101 3 132 17 155 10 16 20 29 24
29 4 0 12 22 19 49 14 58 2 112 -36 168 -22 32 -24 46 -22 107 l3 71 111 3
112 3 -2 -138 c-2 -109 1 -144 14 -165 17 -31 32 -35 50 -13 7 8 17 15 22 15
5 0 29 14 54 32 l44 31 42 -28 c24 -15 55 -36 70 -47 15 -10 31 -18 35 -18 16
0 33 56 33 109 0 31 3 93 7 139 l6 82 93 0 c51 0 99 -3 108 -6 13 -5 16 -22
16 -79 0 -63 -3 -78 -24 -102 -37 -44 -50 -107 -35 -162 7 -25 23 -54 36 -64
22 -18 23 -24 23 -158 l0 -139 -95 0 c-106 0 -155 -16 -155 -51 0 -31 44 -41
167 -37 108 3 114 4 140 31 27 27 28 31 31 157 l4 130 86 0 c84 1 88 2 122 32
l35 32 0 111 c0 87 -4 115 -17 135 -13 20 -17 48 -17 135 1 113 -13 191 -39
235 -22 36 -94 110 -108 110 -6 0 -22 8 -35 19 -13 10 -35 22 -49 26 -14 4
-38 13 -55 21 -16 7 -70 24 -120 37 l-90 24 3 49 c3 43 9 54 46 89 74 69 109
147 125 277 4 35 15 69 29 87 25 34 30 107 11 144 -7 11 -13 66 -15 122 -2 55
-6 117 -9 137 -8 45 -47 98 -100 135 l-40 28 -230 2 c-126 0 -248 -2 -271 -6z
m474 -95 c52 -27 74 -60 82 -128 4 -35 6 -66 4 -70 -6 -9 -61 7 -90 27 -32 21
-152 45 -224 45 -76 0 -206 -27 -248 -51 -18 -10 -41 -19 -51 -19 -9 0 -23 -6
-29 -12 -10 -10 -11 0 -7 47 3 33 8 69 12 80 10 34 53 84 76 88 12 2 118 5
235 6 166 1 219 -2 240 -13z m-153 -221 c77 -16 168 -59 226 -108 47 -39 52
-78 14 -103 -27 -17 -26 -18 -105 41 -64 48 -144 75 -220 75 -56 0 -161 -32
-195 -59 -75 -61 -117 -75 -143 -49 -21 21 -13 46 25 89 39 43 97 76 178 102
93 30 127 31 220 12z m-1 -205 c5 -5 18 -10 27 -10 10 0 32 -12 50 -27 18 -16
55 -38 83 -50 44 -18 51 -26 54 -51 3 -27 -14 -75 -50 -149 -17 -35 -58 -68
-126 -103 -57 -30 -68 -32 -140 -29 -70 4 -82 7 -137 44 -66 45 -105 95 -131
171 -24 70 -15 95 41 118 26 10 60 30 76 44 62 51 217 78 253 42z m37 -514 c1
-6 3 -24 5 -41 2 -16 -5 -48 -16 -71 -14 -33 -28 -47 -64 -63 -48 -23 -62 -25
-68 -13 -1 4 -19 15 -39 25 -42 22 -69 71 -69 126 0 21 2 40 5 42 10 11 245 5
246 -5z m124 -130 c11 -7 40 -16 64 -20 77 -12 182 -64 237 -118 60 -58 73
-93 81 -219 7 -99 14 -89 -79 -104 -41 -6 -40 -7 -53 106 -7 65 -22 83 -77 93
-21 4 -207 7 -415 7 -313 0 -387 -3 -430 -16 -29 -9 -55 -21 -59 -27 -4 -6
-10 -44 -14 -85 -4 -40 -10 -77 -14 -80 -4 -4 -24 -2 -45 3 -23 7 -46 7 -55 2
-14 -8 -15 3 -11 94 3 59 13 122 22 148 33 88 129 153 296 199 92 25 107 26
107 6 0 -27 80 -104 119 -115 50 -14 133 -13 168 3 44 18 97 68 112 105 15 36
19 37 46 18z m-146 -418 c1 -107 -7 -120 -49 -84 -34 28 -59 28 -92 -1 -9 -8
-25 -13 -35 -11 -21 4 -29 64 -18 136 l6 42 93 0 93 0 2 -82z m-598 -138 c49
-14 60 -30 62 -85 2 -37 -2 -50 -20 -65 -28 -22 -99 -33 -158 -24 l-45 6 0 70
c0 96 8 108 73 108 29 0 68 -5 88 -10z m1147 2 c8 -3 12 -30 12 -87 0 -94 -1
-95 -78 -95 -109 0 -155 34 -145 108 6 46 13 54 58 70 29 11 127 13 153 4z"/>
<path d="M1467 413 c-4 -3 -7 -19 -7 -35 0 -25 3 -28 35 -28 44 0 64 29 36 54
-18 16 -52 21 -64 9z"/>
</g>
</svg>
